<?xml version="1.0" encoding="UTF-8" standalone="no"?>
<!-- Created with Inkscape (http://www.inkscape.org/) -->

<svg
   xmlns:dc="http://purl.org/dc/elements/1.1/"
   xmlns:cc="http://creativecommons.org/ns#"
   xmlns:rdf="http://www.w3.org/1999/02/22-rdf-syntax-ns#"
   xmlns:svg="http://www.w3.org/2000/svg"
   xmlns="http://www.w3.org/2000/svg"
   xmlns:sodipodi="http://sodipodi.sourceforge.net/DTD/sodipodi-0.dtd"
   xmlns:inkscape="http://www.inkscape.org/namespaces/inkscape"
   id="svg3347"
   version="1.1"
   inkscape:version="0.91 r13725"
   xml:space="preserve"
   width="853.11877"
   height="619.76624"
   viewBox="0 0 853.11877 619.76624"
   sodipodi:docname="gputest_results.svg"><metadata
     id="metadata3353"><rdf:RDF><cc:Work
         rdf:about=""><dc:format>image/svg+xml</dc:format><dc:type
           rdf:resource="http://purl.org/dc/dcmitype/StillImage" /><dc:title></dc:title></cc:Work></rdf:RDF></metadata><defs
     id="defs3351"><clipPath
       clipPathUnits="userSpaceOnUse"
       id="clipPath3361"><path
         d="m 50.4,54 691.2,0 0,504 -691.2,0 0,-504 z"
         id="path3363"
         inkscape:connector-curvature="0"
         style="clip-rule:evenodd" /></clipPath><clipPath
       clipPathUnits="userSpaceOnUse"
       id="clipPath3385"><path
         d="m 50.4,62.64 682.08,0 0,495.36 -682.08,0 0,-495.36 z"
         id="path3387"
         inkscape:connector-curvature="0"
         style="clip-rule:evenodd" /></clipPath><clipPath
       clipPathUnits="userSpaceOnUse"
       id="clipPath3397"><path
         d="m 50.4,62.64 682.08,0 0,495.36 -682.08,0 0,-495.36 z"
         id="path3399"
         inkscape:connector-curvature="0"
         style="clip-rule:evenodd" /></clipPath><clipPath
       clipPathUnits="userSpaceOnUse"
       id="clipPath3409"><path
         d="m 50.4,62.64 682.08,0 0,495.36 -682.08,0 0,-495.36 z"
         id="path3411"
         inkscape:connector-curvature="0"
         style="clip-rule:evenodd" /></clipPath><clipPath
       clipPathUnits="userSpaceOnUse"
       id="clipPath3421"><path
         d="m 50.4,62.64 682.08,0 0,495.36 -682.08,0 0,-495.36 z"
         id="path3423"
         inkscape:connector-curvature="0"
         style="clip-rule:evenodd" /></clipPath><clipPath
       clipPathUnits="userSpaceOnUse"
       id="clipPath3433"><path
         d="m 50.4,62.64 682.08,0 0,495.36 -682.08,0 0,-495.36 z"
         id="path3435"
         inkscape:connector-curvature="0"
         style="clip-rule:evenodd" /></clipPath><clipPath
       clipPathUnits="userSpaceOnUse"
       id="clipPath3445"><path
         d="m 50.4,62.64 682.08,0 0,495.36 -682.08,0 0,-495.36 z"
         id="path3447"
         inkscape:connector-curvature="0"
         style="clip-rule:evenodd" /></clipPath><clipPath
       clipPathUnits="userSpaceOnUse"
       id="clipPath3457"><path
         d="m 50.4,62.64 682.08,0 0,495.36 -682.08,0 0,-495.36 z"
         id="path3459"
         inkscape:connector-curvature="0"
         style="clip-rule:evenodd" /></clipPath><clipPath
       clipPathUnits="userSpaceOnUse"
       id="clipPath3469"><path
         d="m 50.4,62.64 682.08,0 0,495.36 -682.08,0 0,-495.36 z"
         id="path3471"
         inkscape:connector-curvature="0"
         style="clip-rule:evenodd" /></clipPath><clipPath
       clipPathUnits="userSpaceOnUse"
       id="clipPath3481"><path
         d="m 50.4,62.64 682.08,0 0,495.36 -682.08,0 0,-495.36 z"
         id="path3483"
         inkscape:connector-curvature="0"
         style="clip-rule:evenodd" /></clipPath><clipPath
       clipPathUnits="userSpaceOnUse"
       id="clipPath3493"><path
         d="m 50.4,62.64 682.08,0 0,495.36 -682.08,0 0,-495.36 z"
         id="path3495"
         inkscape:connector-curvature="0"
         style="clip-rule:evenodd" /></clipPath><clipPath
       clipPathUnits="userSpaceOnUse"
       id="clipPath3505"><path
         d="m 50.4,62.64 682.08,0 0,495.36 -682.08,0 0,-495.36 z"
         id="path3507"
         inkscape:connector-curvature="0"
         style="clip-rule:evenodd" /></clipPath><clipPath
       clipPathUnits="userSpaceOnUse"
       id="clipPath3517"><path
         d="m 50.4,62.64 682.08,0 0,495.36 -682.08,0 0,-495.36 z"
         id="path3519"
         inkscape:connector-curvature="0"
         style="clip-rule:evenodd" /></clipPath><clipPath
       clipPathUnits="userSpaceOnUse"
       id="clipPath3529"><path
         d="m 50.4,62.64 682.08,0 0,495.36 -682.08,0 0,-495.36 z"
         id="path3531"
         inkscape:connector-curvature="0"
         style="clip-rule:evenodd" /></clipPath><clipPath
       clipPathUnits="userSpaceOnUse"
       id="clipPath3541"><path
         d="m 50.4,62.64 682.08,0 0,495.36 -682.08,0 0,-495.36 z"
         id="path3543"
         inkscape:connector-curvature="0"
         style="clip-rule:evenodd" /></clipPath><clipPath
       clipPathUnits="userSpaceOnUse"
       id="clipPath3553"><path
         d="m 50.4,62.64 682.08,0 0,495.36 -682.08,0 0,-495.36 z"
         id="path3555"
         inkscape:connector-curvature="0"
         style="clip-rule:evenodd" /></clipPath><clipPath
       clipPathUnits="userSpaceOnUse"
       id="clipPath3565"><path
         d="m 50.4,62.64 682.08,0 0,495.36 -682.08,0 0,-495.36 z"
         id="path3567"
         inkscape:connector-curvature="0"
         style="clip-rule:evenodd" /></clipPath><clipPath
       clipPathUnits="userSpaceOnUse"
       id="clipPath3577"><path
         d="m 50.4,62.64 682.08,0 0,495.36 -682.08,0 0,-495.36 z"
         id="path3579"
         inkscape:connector-curvature="0"
         style="clip-rule:evenodd" /></clipPath><clipPath
       clipPathUnits="userSpaceOnUse"
       id="clipPath3589"><path
         d="m 50.4,62.64 682.08,0 0,495.36 -682.08,0 0,-495.36 z"
         id="path3591"
         inkscape:connector-curvature="0"
         style="clip-rule:evenodd" /></clipPath><clipPath
       clipPathUnits="userSpaceOnUse"
       id="clipPath3601"><path
         d="m 50.4,62.64 682.08,0 0,495.36 -682.08,0 0,-495.36 z"
         id="path3603"
         inkscape:connector-curvature="0"
         style="clip-rule:evenodd" /></clipPath><clipPath
       clipPathUnits="userSpaceOnUse"
       id="clipPath3613"><path
         d="m 50.4,62.64 682.08,0 0,495.36 -682.08,0 0,-495.36 z"
         id="path3615"
         inkscape:connector-curvature="0"
         style="clip-rule:evenodd" /></clipPath><clipPath
       clipPathUnits="userSpaceOnUse"
       id="clipPath3625"><path
         d="m 50.4,62.64 682.08,0 0,495.36 -682.08,0 0,-495.36 z"
         id="path3627"
         inkscape:connector-curvature="0"
         style="clip-rule:evenodd" /></clipPath><clipPath
       clipPathUnits="userSpaceOnUse"
       id="clipPath3637"><path
         d="m 50.4,62.64 682.08,0 0,495.36 -682.08,0 0,-495.36 z"
         id="path3639"
         inkscape:connector-curvature="0"
         style="clip-rule:evenodd" /></clipPath><clipPath
       clipPathUnits="userSpaceOnUse"
       id="clipPath3649"><path
         d="m 50.4,62.64 682.08,0 0,495.36 -682.08,0 0,-495.36 z"
         id="path3651"
         inkscape:connector-curvature="0"
         style="clip-rule:evenodd" /></clipPath><clipPath
       clipPathUnits="userSpaceOnUse"
       id="clipPath3661"><path
         d="m 50.4,62.64 682.08,0 0,495.36 -682.08,0 0,-495.36 z"
         id="path3663"
         inkscape:connector-curvature="0"
         style="clip-rule:evenodd" /></clipPath><clipPath
       clipPathUnits="userSpaceOnUse"
       id="clipPath3673"><path
         d="m 50.4,62.64 682.08,0 0,495.36 -682.08,0 0,-495.36 z"
         id="path3675"
         inkscape:connector-curvature="0"
         style="clip-rule:evenodd" /></clipPath><clipPath
       clipPathUnits="userSpaceOnUse"
       id="clipPath3685"><path
         d="m 50.4,62.64 682.08,0 0,495.36 -682.08,0 0,-495.36 z"
         id="path3687"
         inkscape:connector-curvature="0"
         style="clip-rule:evenodd" /></clipPath><clipPath
       clipPathUnits="userSpaceOnUse"
       id="clipPath3697"><path
         d="m 50.4,62.64 682.08,0 0,495.36 -682.08,0 0,-495.36 z"
         id="path3699"
         inkscape:connector-curvature="0"
         style="clip-rule:evenodd" /></clipPath><clipPath
       clipPathUnits="userSpaceOnUse"
       id="clipPath3709"><path
         d="m 50.4,62.64 682.08,0 0,495.36 -682.08,0 0,-495.36 z"
         id="path3711"
         inkscape:connector-curvature="0"
         style="clip-rule:evenodd" /></clipPath><clipPath
       clipPathUnits="userSpaceOnUse"
       id="clipPath3721"><path
         d="m 50.4,62.64 682.08,0 0,495.36 -682.08,0 0,-495.36 z"
         id="path3723"
         inkscape:connector-curvature="0"
         style="clip-rule:evenodd" /></clipPath><clipPath
       clipPathUnits="userSpaceOnUse"
       id="clipPath3733"><path
         d="m 50.4,62.64 682.08,0 0,495.36 -682.08,0 0,-495.36 z"
         id="path3735"
         inkscape:connector-curvature="0"
         style="clip-rule:evenodd" /></clipPath><clipPath
       clipPathUnits="userSpaceOnUse"
       id="clipPath3745"><path
         d="m 50.4,62.64 682.08,0 0,495.36 -682.08,0 0,-495.36 z"
         id="path3747"
         inkscape:connector-curvature="0"
         style="clip-rule:evenodd" /></clipPath><clipPath
       clipPathUnits="userSpaceOnUse"
       id="clipPath3757"><path
         d="m 50.4,62.64 682.08,0 0,495.36 -682.08,0 0,-495.36 z"
         id="path3759"
         inkscape:connector-curvature="0"
         style="clip-rule:evenodd" /></clipPath><clipPath
       clipPathUnits="userSpaceOnUse"
       id="clipPath3769"><path
         d="m 50.4,62.64 682.08,0 0,495.36 -682.08,0 0,-495.36 z"
         id="path3771"
         inkscape:connector-curvature="0"
         style="clip-rule:evenodd" /></clipPath><clipPath
       clipPathUnits="userSpaceOnUse"
       id="clipPath3781"><path
         d="m 50.4,62.64 682.08,0 0,495.36 -682.08,0 0,-495.36 z"
         id="path3783"
         inkscape:connector-curvature="0"
         style="clip-rule:evenodd" /></clipPath><clipPath
       clipPathUnits="userSpaceOnUse"
       id="clipPath3793"><path
         d="m 50.4,62.64 682.08,0 0,495.36 -682.08,0 0,-495.36 z"
         id="path3795"
         inkscape:connector-curvature="0"
         style="clip-rule:evenodd" /></clipPath><clipPath
       clipPathUnits="userSpaceOnUse"
       id="clipPath3805"><path
         d="m 50.4,62.64 682.08,0 0,495.36 -682.08,0 0,-495.36 z"
         id="path3807"
         inkscape:connector-curvature="0"
         style="clip-rule:evenodd" /></clipPath><clipPath
       clipPathUnits="userSpaceOnUse"
       id="clipPath3817"><path
         d="m 50.4,62.64 682.08,0 0,495.36 -682.08,0 0,-495.36 z"
         id="path3819"
         inkscape:connector-curvature="0"
         style="clip-rule:evenodd" /></clipPath><clipPath
       clipPathUnits="userSpaceOnUse"
       id="clipPath3829"><path
         d="m 50.4,62.64 682.08,0 0,495.36 -682.08,0 0,-495.36 z"
         id="path3831"
         inkscape:connector-curvature="0"
         style="clip-rule:evenodd" /></clipPath><clipPath
       clipPathUnits="userSpaceOnUse"
       id="clipPath3841"><path
         d="m 50.4,62.64 682.08,0 0,495.36 -682.08,0 0,-495.36 z"
         id="path3843"
         inkscape:connector-curvature="0"
         style="clip-rule:evenodd" /></clipPath><clipPath
       clipPathUnits="userSpaceOnUse"
       id="clipPath3853"><path
         d="m 50.4,62.64 682.08,0 0,495.36 -682.08,0 0,-495.36 z"
         id="path3855"
         inkscape:connector-curvature="0"
         style="clip-rule:evenodd" /></clipPath><clipPath
       clipPathUnits="userSpaceOnUse"
       id="clipPath3865"><path
         d="m 50.4,62.64 682.08,0 0,495.36 -682.08,0 0,-495.36 z"
         id="path3867"
         inkscape:connector-curvature="0"
         style="clip-rule:evenodd" /></clipPath><clipPath
       clipPathUnits="userSpaceOnUse"
       id="clipPath3877"><path
         d="m 50.4,62.64 682.08,0 0,495.36 -682.08,0 0,-495.36 z"
         id="path3879"
         inkscape:connector-curvature="0"
         style="clip-rule:evenodd" /></clipPath><clipPath
       clipPathUnits="userSpaceOnUse"
       id="clipPath3889"><path
         d="m 50.4,62.64 682.08,0 0,495.36 -682.08,0 0,-495.36 z"
         id="path3891"
         inkscape:connector-curvature="0"
         style="clip-rule:evenodd" /></clipPath><clipPath
       clipPathUnits="userSpaceOnUse"
       id="clipPath3901"><path
         d="m 50.4,62.64 682.08,0 0,495.36 -682.08,0 0,-495.36 z"
         id="path3903"
         inkscape:connector-curvature="0"
         style="clip-rule:evenodd" /></clipPath><clipPath
       clipPathUnits="userSpaceOnUse"
       id="clipPath3915"><path
         d="m 50.4,62.64 682.08,0 0,495.36 -682.08,0 0,-495.36 z"
         id="path3917"
         inkscape:connector-curvature="0"
         style="clip-rule:evenodd" /></clipPath><clipPath
       clipPathUnits="userSpaceOnUse"
       id="clipPath3929"><path
         d="m 50.4,62.64 682.08,0 0,495.36 -682.08,0 0,-495.36 z"
         id="path3931"
         inkscape:connector-curvature="0"
         style="clip-rule:evenodd" /></clipPath><clipPath
       clipPathUnits="userSpaceOnUse"
       id="clipPath3943"><path
         d="m 50.4,62.64 682.08,0 0,495.36 -682.08,0 0,-495.36 z"
         id="path3945"
         inkscape:connector-curvature="0"
         style="clip-rule:evenodd" /></clipPath><clipPath
       clipPathUnits="userSpaceOnUse"
       id="clipPath3957"><path
         d="m 50.4,62.64 682.08,0 0,495.36 -682.08,0 0,-495.36 z"
         id="path3959"
         inkscape:connector-curvature="0"
         style="clip-rule:evenodd" /></clipPath><clipPath
       clipPathUnits="userSpaceOnUse"
       id="clipPath3971"><path
         d="m 50.4,62.64 682.08,0 0,495.36 -682.08,0 0,-495.36 z"
         id="path3973"
         inkscape:connector-curvature="0"
         style="clip-rule:evenodd" /></clipPath><clipPath
       clipPathUnits="userSpaceOnUse"
       id="clipPath3983"><path
         d="m 50.4,54 691.2,0 0,504 -691.2,0 0,-504 z"
         id="path3985"
         inkscape:connector-curvature="0"
         style="clip-rule:evenodd" /></clipPath></defs><sodipodi:namedview
     pagecolor="#ffffff"
     bordercolor="#666666"
     borderopacity="1"
     objecttolerance="10"
     gridtolerance="10"
     guidetolerance="10"
     inkscape:pageopacity="0"
     inkscape:pageshadow="2"
     inkscape:window-width="2560"
     inkscape:window-height="1377"
     id="namedview3349"
     showgrid="false"
     inkscape:zoom="1.22"
     inkscape:cx="432"
     inkscape:cy="304.76625"
     inkscape:window-x="-8"
     inkscape:window-y="-8"
     inkscape:window-maximized="1"
     inkscape:current-layer="g3355"
     fit-margin-top="0"
     fit-margin-left="0"
     fit-margin-right="0"
     fit-margin-bottom="0" /><g
     id="g3355"
     inkscape:groupmode="layer"
     inkscape:label="all_results"
     transform="matrix(1.25,0,0,-1.25,-63,697.5)"><g
       id="g3357"><g
         id="g3359"
         clip-path="url(#clipPath3361)"><path
           d="m 50.4,62.562 682.12,0 0,495.44 -682.12,0 0,-495.44 z"
           style="fill:#ffffff;fill-opacity:1;fill-rule:evenodd;stroke:none"
           id="path3365"
           inkscape:connector-curvature="0" /></g></g><path
       d="m 78.929,177.36 642.591,0 m -642.591,68.76 642.591,0 m -642.591,68.64 642.591,0 m -642.591,68.76 642.591,0 m -642.591,68.64 642.591,0 m -642.591,68.75 642.591,0"
       style="fill:none;stroke:#d9d9d9;stroke-width:0.75;stroke-linecap:butt;stroke-linejoin:round;stroke-miterlimit:10;stroke-dasharray:none;stroke-opacity:1"
       id="path3367"
       inkscape:connector-curvature="0" /><path
       d="m 93.12,206.16 12.96,0 0,-97.52 -12.96,0 0,97.52 z m 107.04,-54.96 12.96,0 0,-42.56 -12.96,0 0,42.56 z m 107.16,-24.72 12.96,0 0,-17.84 -12.96,0 0,17.84 z m 107.04,33 12.96,0 0,-50.84 -12.96,0 0,50.84 z m 107.16,-31.56 12.96,0 0,-19.28 -12.96,0 0,19.28 z m 107.04,-11.04 12.96,0 0,-8.24 -12.96,0 0,8.24 z"
       style="fill:#5b9bd5;fill-opacity:1;fill-rule:nonzero;stroke:none"
       id="path3369"
       inkscape:connector-curvature="0" /><path
       d="m 109.56,200.76 12.96,0 0,-92.12 -12.96,0 0,92.12 z m 107.04,-54.96 12.96,0 0,-37.16 -12.96,0 0,37.16 z m 107.16,-15.12 12.96,0 0,-22.04 -12.96,0 0,22.04 z m 107.04,30.12 12.96,0 0,-52.16 -12.96,0 0,52.16 z m 107.16,-34.32 12.96,0 0,-17.84 -12.96,0 0,17.84 z m 107.04,-2.76 12.96,0 0,-15.08 -12.96,0 0,15.08 z"
       style="fill:#ed7d31;fill-opacity:1;fill-rule:nonzero;stroke:none"
       id="path3371"
       inkscape:connector-curvature="0" /><path
       d="m 126,166.32 12.96,0 0,-57.68 -12.96,0 0,57.68 z m 107.16,-26.04 12.84,0 0,-31.64 -12.84,0 0,31.64 z m 107.04,-26.16 12.96,0 0,-5.48 -12.96,0 0,5.48 z m 107.04,15.12 12.96,0 0,-20.6 -12.96,0 0,20.6 z m 107.16,-11.04 12.96,0 0,-9.56 -12.96,0 0,9.56 z m 107.04,-8.16 12.96,0 0,-1.4 -12.96,0 0,1.4 z"
       style="fill:#a5a5a5;fill-opacity:1;fill-rule:nonzero;stroke:none"
       id="path3373"
       inkscape:connector-curvature="0" /><path
       d="m 142.44,225.48 12.96,0 0,-116.84 -12.96,0 0,116.84 z m 107.16,-68.76 12.84,0 0,-48.08 -12.84,0 0,48.08 z m 107.04,-35.76 12.96,0 0,-12.32 -12.96,0 0,12.32 z m 107.16,45.36 12.84,0 0,-57.68 -12.84,0 0,57.68 z m 107.04,-38.4 12.96,0 0,-19.28 -12.96,0 0,19.28 z m 107.04,-15.12 12.96,0 0,-4.16 -12.96,0 0,4.16 z"
       style="fill:#ffc000;fill-opacity:1;fill-rule:nonzero;stroke:none"
       id="path3375"
       inkscape:connector-curvature="0" /><path
       d="m 158.88,461.76 12.96,0 0,-353.12 -12.96,0 0,353.12 z m 107.16,-258.36 12.96,0 0,-94.76 -12.96,0 0,94.76 z m 107.04,-5.4 12.96,0 0,-89.36 -12.96,0 0,89.36 z m 107.16,43.92 12.96,0 0,-133.28 -12.96,0 0,133.28 z m 107.04,-97.56 12.96,0 0,-35.72 -12.96,0 0,35.72 z m 107.16,6.84 12.84,0 0,-42.56 -12.84,0 0,42.56 z"
       style="fill:#4472c4;fill-opacity:1;fill-rule:nonzero;stroke:none"
       id="path3377"
       inkscape:connector-curvature="0" /><path
       d="m 78.929,108.64 642.591,0"
       style="fill:none;stroke:#d9d9d9;stroke-width:0.75;stroke-linecap:butt;stroke-linejoin:round;stroke-miterlimit:10;stroke-dasharray:none;stroke-opacity:1"
       id="path3379"
       inkscape:connector-curvature="0" /><g
       id="g3381"><g
         id="g3383"
         clip-path="url(#clipPath3385)"><text
           transform="matrix(1,0,0,-1,94.992,213.1)"
           style="font-variant:normal;font-weight:normal;font-size:9px;font-family:Calibri;-inkscape-font-specification:Calibri;writing-mode:lr-tb;fill:#404040;fill-opacity:1;fill-rule:nonzero;stroke:none"
           id="text3389"><tspan
             x="0 4.5599999"
             y="0"
             sodipodi:role="line"
             id="tspan3391">71</tspan></text>
</g></g><g
       id="g3393"><g
         id="g3395"
         clip-path="url(#clipPath3397)"><text
           transform="matrix(1,0,0,-1,202.1,158.11)"
           style="font-variant:normal;font-weight:normal;font-size:9px;font-family:Calibri;-inkscape-font-specification:Calibri;writing-mode:lr-tb;fill:#404040;fill-opacity:1;fill-rule:nonzero;stroke:none"
           id="text3401"><tspan
             x="0 4.5599999"
             y="0"
             sodipodi:role="line"
             id="tspan3403">31</tspan></text>
</g></g><g
       id="g3405"><g
         id="g3407"
         clip-path="url(#clipPath3409)"><text
           transform="matrix(1,0,0,-1,309.22,133.37)"
           style="font-variant:normal;font-weight:normal;font-size:9px;font-family:Calibri;-inkscape-font-specification:Calibri;writing-mode:lr-tb;fill:#404040;fill-opacity:1;fill-rule:nonzero;stroke:none"
           id="text3413"><tspan
             x="0 4.5599999"
             y="0"
             sodipodi:role="line"
             id="tspan3415">13</tspan></text>
</g></g><g
       id="g3417"><g
         id="g3419"
         clip-path="url(#clipPath3421)"><text
           transform="matrix(1,0,0,-1,416.33,166.37)"
           style="font-variant:normal;font-weight:normal;font-size:9px;font-family:Calibri;-inkscape-font-specification:Calibri;writing-mode:lr-tb;fill:#404040;fill-opacity:1;fill-rule:nonzero;stroke:none"
           id="text3425"><tspan
             x="0 4.5599999"
             y="0"
             sodipodi:role="line"
             id="tspan3427">37</tspan></text>
</g></g><g
       id="g3429"><g
         id="g3431"
         clip-path="url(#clipPath3433)"><text
           transform="matrix(1,0,0,-1,523.44,134.74)"
           style="font-variant:normal;font-weight:normal;font-size:9px;font-family:Calibri;-inkscape-font-specification:Calibri;writing-mode:lr-tb;fill:#404040;fill-opacity:1;fill-rule:nonzero;stroke:none"
           id="text3437"><tspan
             x="0 4.5599999"
             y="0"
             sodipodi:role="line"
             id="tspan3439">14</tspan></text>
</g></g><g
       id="g3441"><g
         id="g3443"
         clip-path="url(#clipPath3445)"><text
           transform="matrix(1,0,0,-1,632.83,123.74)"
           style="font-variant:normal;font-weight:normal;font-size:9px;font-family:Calibri;-inkscape-font-specification:Calibri;writing-mode:lr-tb;fill:#404040;fill-opacity:1;fill-rule:nonzero;stroke:none"
           id="text3449"><tspan
             x="0"
             y="0"
             id="tspan3451">6</tspan></text>
</g></g><g
       id="g3453"><g
         id="g3455"
         clip-path="url(#clipPath3457)"><text
           transform="matrix(1,0,0,-1,111.43,207.6)"
           style="font-variant:normal;font-weight:normal;font-size:9px;font-family:Calibri;-inkscape-font-specification:Calibri;writing-mode:lr-tb;fill:#404040;fill-opacity:1;fill-rule:nonzero;stroke:none"
           id="text3461"><tspan
             x="0 4.5599999"
             y="0"
             sodipodi:role="line"
             id="tspan3463">67</tspan></text>
</g></g><g
       id="g3465"><g
         id="g3467"
         clip-path="url(#clipPath3469)"><text
           transform="matrix(1,0,0,-1,218.54,152.62)"
           style="font-variant:normal;font-weight:normal;font-size:9px;font-family:Calibri;-inkscape-font-specification:Calibri;writing-mode:lr-tb;fill:#404040;fill-opacity:1;fill-rule:nonzero;stroke:none"
           id="text3473"><tspan
             x="0 4.5599999"
             y="0"
             sodipodi:role="line"
             id="tspan3475">27</tspan></text>
</g></g><g
       id="g3477"><g
         id="g3479"
         clip-path="url(#clipPath3481)"><text
           transform="matrix(1,0,0,-1,325.66,137.5)"
           style="font-variant:normal;font-weight:normal;font-size:9px;font-family:Calibri;-inkscape-font-specification:Calibri;writing-mode:lr-tb;fill:#404040;fill-opacity:1;fill-rule:nonzero;stroke:none"
           id="text3485"><tspan
             x="0 4.5599999"
             y="0"
             sodipodi:role="line"
             id="tspan3487">16</tspan></text>
</g></g><g
       id="g3489"><g
         id="g3491"
         clip-path="url(#clipPath3493)"><text
           transform="matrix(1,0,0,-1,432.77,167.74)"
           style="font-variant:normal;font-weight:normal;font-size:9px;font-family:Calibri;-inkscape-font-specification:Calibri;writing-mode:lr-tb;fill:#404040;fill-opacity:1;fill-rule:nonzero;stroke:none"
           id="text3497"><tspan
             x="0 4.5599999"
             y="0"
             sodipodi:role="line"
             id="tspan3499">38</tspan></text>
</g></g><g
       id="g3501"><g
         id="g3503"
         clip-path="url(#clipPath3505)"><text
           transform="matrix(1,0,0,-1,539.88,133.37)"
           style="font-variant:normal;font-weight:normal;font-size:9px;font-family:Calibri;-inkscape-font-specification:Calibri;writing-mode:lr-tb;fill:#404040;fill-opacity:1;fill-rule:nonzero;stroke:none"
           id="text3509"><tspan
             x="0 4.5599999"
             y="0"
             sodipodi:role="line"
             id="tspan3511">13</tspan></text>
</g></g><g
       id="g3513"><g
         id="g3515"
         clip-path="url(#clipPath3517)"><text
           transform="matrix(1,0,0,-1,646.99,130.63)"
           style="font-variant:normal;font-weight:normal;font-size:9.02400017px;font-family:Calibri;-inkscape-font-specification:Calibri;writing-mode:lr-tb;fill:#404040;fill-opacity:1;fill-rule:nonzero;stroke:none"
           id="text3521"><tspan
             x="0 4.559968"
             y="0"
             sodipodi:role="line"
             id="tspan3523">11</tspan></text>
</g></g><g
       id="g3525"><g
         id="g3527"
         clip-path="url(#clipPath3529)"><text
           transform="matrix(1,0,0,-1,127.9,173.23)"
           style="font-variant:normal;font-weight:normal;font-size:9px;font-family:Calibri;-inkscape-font-specification:Calibri;writing-mode:lr-tb;fill:#404040;fill-opacity:1;fill-rule:nonzero;stroke:none"
           id="text3533"><tspan
             x="0 4.5599999"
             y="0"
             sodipodi:role="line"
             id="tspan3535">42</tspan></text>
</g></g><g
       id="g3537"><g
         id="g3539"
         clip-path="url(#clipPath3541)"><text
           transform="matrix(1,0,0,-1,235.01,147.12)"
           style="font-variant:normal;font-weight:normal;font-size:9px;font-family:Calibri;-inkscape-font-specification:Calibri;writing-mode:lr-tb;fill:#404040;fill-opacity:1;fill-rule:nonzero;stroke:none"
           id="text3545"><tspan
             x="0 4.5599999"
             y="0"
             sodipodi:role="line"
             id="tspan3547">23</tspan></text>
</g></g><g
       id="g3549"><g
         id="g3551"
         clip-path="url(#clipPath3553)"><text
           transform="matrix(1,0,0,-1,344.4,121.01)"
           style="font-variant:normal;font-weight:normal;font-size:9px;font-family:Calibri;-inkscape-font-specification:Calibri;writing-mode:lr-tb;fill:#404040;fill-opacity:1;fill-rule:nonzero;stroke:none"
           id="text3557"><tspan
             x="0"
             y="0"
             id="tspan3559">4</tspan></text>
</g></g><g
       id="g3561"><g
         id="g3563"
         clip-path="url(#clipPath3565)"><text
           transform="matrix(1,0,0,-1,449.23,136.13)"
           style="font-variant:normal;font-weight:normal;font-size:9px;font-family:Calibri;-inkscape-font-specification:Calibri;writing-mode:lr-tb;fill:#404040;fill-opacity:1;fill-rule:nonzero;stroke:none"
           id="text3569"><tspan
             x="0 4.5599999"
             y="0"
             sodipodi:role="line"
             id="tspan3571">15</tspan></text>
</g></g><g
       id="g3573"><g
         id="g3575"
         clip-path="url(#clipPath3577)"><text
           transform="matrix(1,0,0,-1,558.62,125.11)"
           style="font-variant:normal;font-weight:normal;font-size:9px;font-family:Calibri;-inkscape-font-specification:Calibri;writing-mode:lr-tb;fill:#404040;fill-opacity:1;fill-rule:nonzero;stroke:none"
           id="text3581"><tspan
             x="0"
             y="0"
             id="tspan3583">7</tspan></text>
</g></g><g
       id="g3585"><g
         id="g3587"
         clip-path="url(#clipPath3589)"><text
           transform="matrix(1,0,0,-1,665.74,116.88)"
           style="font-variant:normal;font-weight:normal;font-size:9px;font-family:Calibri;-inkscape-font-specification:Calibri;writing-mode:lr-tb;fill:#404040;fill-opacity:1;fill-rule:nonzero;stroke:none"
           id="text3593"><tspan
             x="0"
             y="0"
             id="tspan3595">1</tspan></text>
</g></g><g
       id="g3597"><g
         id="g3599"
         clip-path="url(#clipPath3601)"><text
           transform="matrix(1,0,0,-1,144.34,232.34)"
           style="font-variant:normal;font-weight:normal;font-size:9px;font-family:Calibri;-inkscape-font-specification:Calibri;writing-mode:lr-tb;fill:#404040;fill-opacity:1;fill-rule:nonzero;stroke:none"
           id="text3605"><tspan
             x="0 4.5599999"
             y="0"
             sodipodi:role="line"
             id="tspan3607">85</tspan></text>
</g></g><g
       id="g3609"><g
         id="g3611"
         clip-path="url(#clipPath3613)"><text
           transform="matrix(1,0,0,-1,251.45,163.61)"
           style="font-variant:normal;font-weight:normal;font-size:9px;font-family:Calibri;-inkscape-font-specification:Calibri;writing-mode:lr-tb;fill:#404040;fill-opacity:1;fill-rule:nonzero;stroke:none"
           id="text3617"><tspan
             x="0 4.5599999"
             y="0"
             sodipodi:role="line"
             id="tspan3619">35</tspan></text>
</g></g><g
       id="g3621"><g
         id="g3623"
         clip-path="url(#clipPath3625)"><text
           transform="matrix(1,0,0,-1,360.84,127.87)"
           style="font-variant:normal;font-weight:normal;font-size:9px;font-family:Calibri;-inkscape-font-specification:Calibri;writing-mode:lr-tb;fill:#404040;fill-opacity:1;fill-rule:nonzero;stroke:none"
           id="text3629"><tspan
             x="0"
             y="0"
             id="tspan3631">9</tspan></text>
</g></g><g
       id="g3633"><g
         id="g3635"
         clip-path="url(#clipPath3637)"><text
           transform="matrix(1,0,0,-1,465.67,173.23)"
           style="font-variant:normal;font-weight:normal;font-size:9px;font-family:Calibri;-inkscape-font-specification:Calibri;writing-mode:lr-tb;fill:#404040;fill-opacity:1;fill-rule:nonzero;stroke:none"
           id="text3641"><tspan
             x="0 4.5599999"
             y="0"
             sodipodi:role="line"
             id="tspan3643">42</tspan></text>
</g></g><g
       id="g3645"><g
         id="g3647"
         clip-path="url(#clipPath3649)"><text
           transform="matrix(1,0,0,-1,572.78,134.74)"
           style="font-variant:normal;font-weight:normal;font-size:9px;font-family:Calibri;-inkscape-font-specification:Calibri;writing-mode:lr-tb;fill:#404040;fill-opacity:1;fill-rule:nonzero;stroke:none"
           id="text3653"><tspan
             x="0 4.5599999"
             y="0"
             sodipodi:role="line"
             id="tspan3655">14</tspan></text>
</g></g><g
       id="g3657"><g
         id="g3659"
         clip-path="url(#clipPath3661)"><text
           transform="matrix(1,0,0,-1,682.18,119.62)"
           style="font-variant:normal;font-weight:normal;font-size:9px;font-family:Calibri;-inkscape-font-specification:Calibri;writing-mode:lr-tb;fill:#404040;fill-opacity:1;fill-rule:nonzero;stroke:none"
           id="text3665"><tspan
             x="0"
             y="0"
             id="tspan3667">3</tspan></text>
</g></g><g
       id="g3669"><g
         id="g3671"
         clip-path="url(#clipPath3673)"><text
           transform="matrix(1,0,0,-1,158.52,468.77)"
           style="font-variant:normal;font-weight:normal;font-size:9px;font-family:Calibri;-inkscape-font-specification:Calibri;writing-mode:lr-tb;fill:#404040;fill-opacity:1;fill-rule:nonzero;stroke:none"
           id="text3677"><tspan
             x="0 4.5599999 9.1199999"
             y="0"
             sodipodi:role="line"
             id="tspan3679">257</tspan></text>
</g></g><g
       id="g3681"><g
         id="g3683"
         clip-path="url(#clipPath3685)"><text
           transform="matrix(1,0,0,-1,267.91,210.34)"
           style="font-variant:normal;font-weight:normal;font-size:9px;font-family:Calibri;-inkscape-font-specification:Calibri;writing-mode:lr-tb;fill:#404040;fill-opacity:1;fill-rule:nonzero;stroke:none"
           id="text3689"><tspan
             x="0 4.5599999"
             y="0"
             sodipodi:role="line"
             id="tspan3691">69</tspan></text>
</g></g><g
       id="g3693"><g
         id="g3695"
         clip-path="url(#clipPath3697)"><text
           transform="matrix(1,0,0,-1,375.02,204.84)"
           style="font-variant:normal;font-weight:normal;font-size:9px;font-family:Calibri;-inkscape-font-specification:Calibri;writing-mode:lr-tb;fill:#404040;fill-opacity:1;fill-rule:nonzero;stroke:none"
           id="text3701"><tspan
             x="0 4.5599999"
             y="0"
             sodipodi:role="line"
             id="tspan3703">65</tspan></text>
</g></g><g
       id="g3705"><g
         id="g3707"
         clip-path="url(#clipPath3709)"><text
           transform="matrix(1,0,0,-1,482.11,248.83)"
           style="font-variant:normal;font-weight:normal;font-size:9px;font-family:Calibri;-inkscape-font-specification:Calibri;writing-mode:lr-tb;fill:#404040;fill-opacity:1;fill-rule:nonzero;stroke:none"
           id="text3713"><tspan
             x="0 4.5599999"
             y="0"
             sodipodi:role="line"
             id="tspan3715">97</tspan></text>
</g></g><g
       id="g3717"><g
         id="g3719"
         clip-path="url(#clipPath3721)"><text
           transform="matrix(1,0,0,-1,589.22,151.25)"
           style="font-variant:normal;font-weight:normal;font-size:9px;font-family:Calibri;-inkscape-font-specification:Calibri;writing-mode:lr-tb;fill:#404040;fill-opacity:1;fill-rule:nonzero;stroke:none"
           id="text3725"><tspan
             x="0 4.5599999"
             y="0"
             sodipodi:role="line"
             id="tspan3727">26</tspan></text>
</g></g><g
       id="g3729"><g
         id="g3731"
         clip-path="url(#clipPath3733)"><text
           transform="matrix(1,0,0,-1,696.34,158.11)"
           style="font-variant:normal;font-weight:normal;font-size:9px;font-family:Calibri;-inkscape-font-specification:Calibri;writing-mode:lr-tb;fill:#404040;fill-opacity:1;fill-rule:nonzero;stroke:none"
           id="text3737"><tspan
             x="0 4.5599999"
             y="0"
             sodipodi:role="line"
             id="tspan3739">31</tspan></text>
</g></g><g
       id="g3741"><g
         id="g3743"
         clip-path="url(#clipPath3745)"><text
           transform="matrix(1,0,0,-1,66.024,106.01)"
           style="font-variant:normal;font-weight:normal;font-size:9px;font-family:Calibri;-inkscape-font-specification:Calibri;writing-mode:lr-tb;fill:#595959;fill-opacity:1;fill-rule:nonzero;stroke:none"
           id="text3749"><tspan
             x="0"
             y="0"
             id="tspan3751">0</tspan></text>
</g></g><g
       id="g3753"><g
         id="g3755"
         clip-path="url(#clipPath3757)"><text
           transform="matrix(1,0,0,-1,61.464,174.72)"
           style="font-variant:normal;font-weight:normal;font-size:9px;font-family:Calibri;-inkscape-font-specification:Calibri;writing-mode:lr-tb;fill:#595959;fill-opacity:1;fill-rule:nonzero;stroke:none"
           id="text3761"><tspan
             x="0 4.5599999"
             y="0"
             sodipodi:role="line"
             id="tspan3763">50</tspan></text>
</g></g><g
       id="g3765"><g
         id="g3767"
         clip-path="url(#clipPath3769)"><text
           transform="matrix(1,0,0,-1,56.904,243.46)"
           style="font-variant:normal;font-weight:normal;font-size:9px;font-family:Calibri;-inkscape-font-specification:Calibri;writing-mode:lr-tb;fill:#595959;fill-opacity:1;fill-rule:nonzero;stroke:none"
           id="text3773"><tspan
             x="0 4.5599999 9.1199999"
             y="0"
             sodipodi:role="line"
             id="tspan3775">100</tspan></text>
</g></g><g
       id="g3777"><g
         id="g3779"
         clip-path="url(#clipPath3781)"><text
           transform="matrix(1,0,0,-1,56.904,312.19)"
           style="font-variant:normal;font-weight:normal;font-size:9px;font-family:Calibri;-inkscape-font-specification:Calibri;writing-mode:lr-tb;fill:#595959;fill-opacity:1;fill-rule:nonzero;stroke:none"
           id="text3785"><tspan
             x="0 4.5599999 9.1199999"
             y="0"
             sodipodi:role="line"
             id="tspan3787">150</tspan></text>
</g></g><g
       id="g3789"><g
         id="g3791"
         clip-path="url(#clipPath3793)"><text
           transform="matrix(1,0,0,-1,56.904,380.9)"
           style="font-variant:normal;font-weight:normal;font-size:9px;font-family:Calibri;-inkscape-font-specification:Calibri;writing-mode:lr-tb;fill:#595959;fill-opacity:1;fill-rule:nonzero;stroke:none"
           id="text3797"><tspan
             x="0 4.5599999 9.1199999"
             y="0"
             sodipodi:role="line"
             id="tspan3799">200</tspan></text>
</g></g><g
       id="g3801"><g
         id="g3803"
         clip-path="url(#clipPath3805)"><text
           transform="matrix(1,0,0,-1,56.904,449.64)"
           style="font-variant:normal;font-weight:normal;font-size:9px;font-family:Calibri;-inkscape-font-specification:Calibri;writing-mode:lr-tb;fill:#595959;fill-opacity:1;fill-rule:nonzero;stroke:none"
           id="text3809"><tspan
             x="0 4.5599999 9.1199999"
             y="0"
             sodipodi:role="line"
             id="tspan3811">250</tspan></text>
</g></g><g
       id="g3813"><g
         id="g3815"
         clip-path="url(#clipPath3817)"><text
           transform="matrix(1,0,0,-1,56.904,518.38)"
           style="font-variant:normal;font-weight:normal;font-size:9px;font-family:Calibri;-inkscape-font-specification:Calibri;writing-mode:lr-tb;fill:#595959;fill-opacity:1;fill-rule:nonzero;stroke:none"
           id="text3821"><tspan
             x="0 4.5599999 9.1199999"
             y="0"
             sodipodi:role="line"
             id="tspan3823">300</tspan></text>
</g></g><g
       id="g3825"><g
         id="g3827"
         clip-path="url(#clipPath3829)"><text
           transform="matrix(1,0,0,-1,107.78,94.296)"
           style="font-variant:normal;font-weight:normal;font-size:9px;font-family:Calibri;-inkscape-font-specification:Calibri;writing-mode:lr-tb;fill:#595959;fill-opacity:1;fill-rule:nonzero;stroke:none"
           id="text3833"><tspan
             x="0 5.6430001 10.071 14.742 19.305 23.868 28.431 31.184999 35.748001 40.311001 44.874001"
             y="0"
             sodipodi:role="line"
             id="tspan3835">GTX980-1024</tspan></text>
</g></g><g
       id="g3837"><g
         id="g3839"
         clip-path="url(#clipPath3841)"><text
           transform="matrix(1,0,0,-1,224.5,94.296)"
           style="font-variant:normal;font-weight:normal;font-size:9px;font-family:Calibri;-inkscape-font-specification:Calibri;writing-mode:lr-tb;fill:#595959;fill-opacity:1;fill-rule:nonzero;stroke:none"
           id="text3845"><tspan
             x="0 4.6799998 9.243 11.997 16.559999 21.122999 25.686001"
             y="0"
             sodipodi:role="line"
             id="tspan3847">K2-1024</tspan></text>
</g></g><g
       id="g3849"><g
         id="g3851"
         clip-path="url(#clipPath3853)"><text
           transform="matrix(1,0,0,-1,331.61,94.296)"
           style="font-variant:normal;font-weight:normal;font-size:9px;font-family:Calibri;-inkscape-font-specification:Calibri;writing-mode:lr-tb;fill:#595959;fill-opacity:1;fill-rule:nonzero;stroke:none"
           id="text3857"><tspan
             x="0 4.6799998 9.243 11.997 16.559999 21.122999 25.686001"
             y="0"
             sodipodi:role="line"
             id="tspan3859">K1-1024</tspan></text>
</g></g><g
       id="g3861"><g
         id="g3863"
         clip-path="url(#clipPath3865)"><text
           transform="matrix(1,0,0,-1,429.12,94.296)"
           style="font-variant:normal;font-weight:normal;font-size:9px;font-family:Calibri;-inkscape-font-specification:Calibri;writing-mode:lr-tb;fill:#595959;fill-opacity:1;fill-rule:nonzero;stroke:none"
           id="text3869"><tspan
             x="0 5.6430001 10.071 14.742 19.305 23.868 28.431 31.184999 35.748001 40.311001 44.874001"
             y="0"
             sodipodi:role="line"
             id="tspan3871">GTX980-1920</tspan></text>
</g></g><g
       id="g3873"><g
         id="g3875"
         clip-path="url(#clipPath3877)"><text
           transform="matrix(1,0,0,-1,545.83,94.296)"
           style="font-variant:normal;font-weight:normal;font-size:9px;font-family:Calibri;-inkscape-font-specification:Calibri;writing-mode:lr-tb;fill:#595959;fill-opacity:1;fill-rule:nonzero;stroke:none"
           id="text3881"><tspan
             x="0 4.6799998 9.243 11.997 16.559999 21.122999 25.686001"
             y="0"
             sodipodi:role="line"
             id="tspan3883">K2-1920</tspan></text>
</g></g><g
       id="g3885"><g
         id="g3887"
         clip-path="url(#clipPath3889)"><text
           transform="matrix(1,0,0,-1,652.94,94.296)"
           style="font-variant:normal;font-weight:normal;font-size:9px;font-family:Calibri;-inkscape-font-specification:Calibri;writing-mode:lr-tb;fill:#595959;fill-opacity:1;fill-rule:nonzero;stroke:none"
           id="text3893"><tspan
             x="0 4.6799998 9.243 11.997 16.559999 21.122999 25.686001"
             y="0"
             sodipodi:role="line"
             id="tspan3895">K1-1920</tspan></text>
</g></g><g
       id="g3897"><g
         id="g3899"
         clip-path="url(#clipPath3901)"><text
           transform="matrix(1,0,0,-1,300.58,537.17)"
           style="font-variant:normal;font-weight:normal;font-size:14.03999996px;font-family:Calibri;-inkscape-font-specification:Calibri;writing-mode:lr-tb;fill:#595959;fill-opacity:1;fill-rule:nonzero;stroke:none"
           id="text3905"><tspan
             x="0 8.8592396 16.23024 23.517 29.161079 36.153 41.516281 46.219681 49.196159 57.156841 66.226677 73.709999 76.883041 83.874962 90.866882 95.766838 99.83844 107.23752 112.1796 123.3414 130.06656 137.38139 143.26416 150.25607 153.21852 157.41647 163.86084 171.11952 177.56387"
             y="0"
             sodipodi:role="line"
             id="tspan3907">GpuTest VNC Performance (FPS)</tspan></text>
</g></g><path
       d="m 244.19,74.528 4.9433,0 0,4.9433 -4.9433,0 0,-4.9433 z"
       style="fill:#5b9bd5;fill-opacity:1;fill-rule:evenodd;stroke:none"
       id="path3909"
       inkscape:connector-curvature="0" /><g
       id="g3911"><g
         id="g3913"
         clip-path="url(#clipPath3915)"><text
           transform="matrix(1,0,0,-1,251.26,74.352)"
           style="font-variant:normal;font-weight:normal;font-size:9px;font-family:Calibri;-inkscape-font-specification:Calibri;writing-mode:lr-tb;fill:#595959;fill-opacity:1;fill-rule:nonzero;stroke:none"
           id="text3919"><tspan
             x="0 4.0770001 8.8649998 12.006 19.665001 23.976 27.117001"
             y="0"
             sodipodi:role="line"
             id="tspan3921">FurMark</tspan></text>
</g></g><path
       d="m 294.16,74.528 4.9433,0 0,4.9433 -4.9433,0 0,-4.9433 z"
       style="fill:#ed7d31;fill-opacity:1;fill-rule:evenodd;stroke:none"
       id="path3923"
       inkscape:connector-curvature="0" /><g
       id="g3925"><g
         id="g3927"
         clip-path="url(#clipPath3929)"><text
           transform="matrix(1,0,0,-1,301.25,74.352)"
           style="font-variant:normal;font-weight:normal;font-size:9px;font-family:Calibri;-inkscape-font-specification:Calibri;writing-mode:lr-tb;fill:#595959;fill-opacity:1;fill-rule:nonzero;stroke:none"
           id="text3933"><tspan
             x="0 5.6430001 7.7940001 15.489 19.799999 22.914"
             y="0"
             sodipodi:role="line"
             id="tspan3935">GiMark</tspan></text>
</g></g><path
       d="m 339.88,74.528 4.9433,0 0,4.9433 -4.9433,0 0,-4.9433 z"
       style="fill:#a5a5a5;fill-opacity:1;fill-rule:evenodd;stroke:none"
       id="path3937"
       inkscape:connector-curvature="0" /><g
       id="g3939"><g
         id="g3941"
         clip-path="url(#clipPath3943)"><text
           transform="matrix(1,0,0,-1,346.97,74.352)"
           style="font-variant:normal;font-weight:normal;font-size:9px;font-family:Calibri;-inkscape-font-specification:Calibri;writing-mode:lr-tb;fill:#595959;fill-opacity:1;fill-rule:nonzero;stroke:none"
           id="text3947"><tspan
             x="0 4.6529999 6.723 10.557 18.351 22.662001 25.802999 29.871 31.905001 36.467999 38.618999 42.93 47.618999"
             y="0"
             sodipodi:role="line"
             id="tspan3949">PixMark Piano</tspan></text>
</g></g><path
       d="m 411.01,74.528 4.9433,0 0,4.9433 -4.9433,0 0,-4.9433 z"
       style="fill:#ffc000;fill-opacity:1;fill-rule:evenodd;stroke:none"
       id="path3951"
       inkscape:connector-curvature="0" /><g
       id="g3953"><g
         id="g3955"
         clip-path="url(#clipPath3957)"><text
           transform="matrix(1,0,0,-1,418.1,74.352)"
           style="font-variant:normal;font-weight:normal;font-size:9px;font-family:Calibri;-inkscape-font-specification:Calibri;writing-mode:lr-tb;fill:#595959;fill-opacity:1;fill-rule:nonzero;stroke:none"
           id="text3961"><tspan
             x="0 4.6529999 6.723 10.557 18.351 22.662001 25.802999 29.871 31.905001 36.953999 41.742001 43.785 48.465 50.616001 55.296001 58.887001 60.93 65.610001"
             y="0"
             sodipodi:role="line"
             id="tspan3963">PixMark Volplosion</tspan></text>
</g></g><path
       d="m 500.15,74.528 4.9433,0 0,4.9433 -4.9433,0 0,-4.9433 z"
       style="fill:#4472c4;fill-opacity:1;fill-rule:evenodd;stroke:none"
       id="path3965"
       inkscape:connector-curvature="0" /><g
       id="g3967"><g
         id="g3969"
         clip-path="url(#clipPath3971)"><text
           transform="matrix(1,0,0,-1,507.26,74.352)"
           style="font-variant:normal;font-weight:normal;font-size:9px;font-family:Calibri;-inkscape-font-specification:Calibri;writing-mode:lr-tb;fill:#595959;fill-opacity:1;fill-rule:nonzero;stroke:none"
           id="text3975"><tspan
             x="0 4.428 8.8649998 12.348 15.939 23.634001 27.945 31.059"
             y="0"
             sodipodi:role="line"
             id="tspan3977">TessMark</tspan></text>
</g></g><g
       id="g3979"><g
         id="g3981"
         clip-path="url(#clipPath3983)"><path
           d="m 50.4,62.562 682.12,0 0,495.44 -682.12,0 0,-495.44 z"
           style="fill:none;stroke:#d9d9d9;stroke-width:0.75;stroke-linecap:butt;stroke-linejoin:round;stroke-miterlimit:10;stroke-dasharray:none;stroke-opacity:1"
           id="path3987"
           inkscape:connector-curvature="0" /></g></g></g></svg>